#!OML:ASF F:\VICON\USERDATA\INSTALL\rory3\rory3.ASF
:FULLY-SPECIFIED
:DEGREES
653
root 3.27347 17.9095 13.0631 10.6719 -77.1864 -12.5906
lowerback 13.6132 -1.6245 4.14879
upperback 1.94129 -1.53994 1.48777
thorax -5.64761 -0.86447 -0.489473
lowerneck -11.3799 -5.92861 -11.8824
upperneck 35.406 -10.553 9.06823
head 15.4987 -5.4045 4.03674
rclavicle -3.40916e-014 2.34566e-014
rhumerus -39.9893 27.8652 -98.6266
rradius 93.9878
rwrist -4.99166
rhand -21.6241 14.1623
rfingers 7.12502
rthumb 4.77176 -15.7639
lclavicle -3.40916e-014 2.34566e-014
lhumerus -40.3973 -31.7477 105.677
lradius 91.0357
lwrist 9.89527
lhand -17.1606 33.7556
lfingers 7.12502
lthumb 9.08034 63.5402
rfemur 1.74335 -6.20925 29.1535
rtibia 20.7211
rfoot -16.8621 -4.94002
rtoes 19.3215
lfemur -21.2335 -7.32932 -14.3544
ltibia 43.1137
lfoot -7.13632 -0.352952
ltoes -18.0303
654
root 3.15259 17.9064 13.0923 11.5384 -77.5673 -13.6602
lowerback 13.5364 -1.53711 4.47436
upperback 2.06198 -1.39158 1.45867
thorax -5.47908 -0.796486 -0.734681
lowerneck -11.3737 -5.95956 -11.793
upperneck 35.3622 -10.585 8.98486
head 15.4674 -5.41472 3.97744
rclavicle 5.14355e-014 -1.82882e-014
rhumerus -39.9472 27.8492 -98.6819
rradius 93.9151
rwrist -4.95741
rhand -21.8663 14.356
rfingers 7.12502
rthumb 4.53786 -15.5753
lclavicle 5.14355e-014 -1.82882e-014
lhumerus -40.4034 -31.7484 105.656
lradius 91.0259
lwrist 9.9773
lhand -17.0662 34.0287
lfingers 7.12502
lthumb 9.1715 63.8093
rfemur 2.61168 -6.15436 29.114
rtibia 20.271
rfoot -16.8952 -4.50036
rtoes 20.5238
lfemur -21.1126 -7.51938 -14.332
ltibia 41.0498
lfoot -7.18733 0.338235
ltoes -18.9861
655
root 3.05377 17.8945 13.0949 12.6698 -77.5971 -14.7471
lowerback 13.5507 -1.48871 4.68712
upperback 2.04055 -1.29451 1.4699
thorax -5.50928 -0.753763 -0.859479
lowerneck -11.3646 -6.00823 -11.6932
upperneck 35.2984 -10.6718 8.97818
head 15.4393 -5.43698 3.9394
rclavicle 1.15792e-014 -1.59028e-015
rhumerus -39.8344 27.6631 -98.7214
rradius 93.8348
rwrist -4.87872
rhand -21.884 14.4669
rfingers 7.12502
rthumb 4.52077 -15.4648
lclavicle 1.15792e-014 -1.59028e-015
lhumerus -40.4147 -31.8993 105.66
lradius 90.9534
lwrist 10.1623
lhand -17.3104 34.355
lfingers 7.12502
lthumb 8.93582 64.1458
rfemur 3.15582 -6.09249 29.4263
rtibia 19.801
rfoot -16.843 -4.55207
rtoes 21.0469
lfemur -21.4045 -7.22364 -14.0521
ltibia 38.9089
lfoot -7.06872 0.119887
ltoes -19.5953
656
root 2.94611 17.8837 13.1032 13.0367 -77.7782 -15.1467
lowerback 13.5577 -1.41423 4.74379
upperback 2.07411 -1.19109 1.44548
thorax -5.47387 -0.703779 -0.936465
lowerneck -11.3626 -6.0576 -11.772
upperneck 35.2798 -10.754 9.05773
head 15.4549 -5.47207 3.97211
rclavicle 2.03754e-014 -6.75868e-015
rhumerus -39.8462 27.7011 -98.7118
rradius 93.9208
rwrist -4.8419
rhand -21.9804 14.3004
rfingers 7.12502
rthumb 4.42774 -15.6334
lclavicle 2.03754e-014 -6.75868e-015
lhumerus -40.4327 -31.9321 105.693
lradius 90.9164
lwrist 10.1702
lhand -17.4986 34.2504
lfingers 7.12502
lthumb 8.75425 64.0488
rfemur 3.84051 -5.86477 29.5137
rtibia 19.293
rfoot -16.6261 -4.63804
rtoes 20.302
lfemur -21.4705 -7.11645 -14.0558
ltibia 36.6793
lfoot -6.62144 0.1449
ltoes -19.1657
657
root 2.83149 17.875 13.1158 13.1249 -78.1172 -15.3034
lowerback 13.5323 -1.3492 4.64721
upperback 2.11861 -1.1237 1.44751
thorax -5.40729 -0.667792 -0.893585
lowerneck -11.3627 -6.04175 -11.9152
upperneck 35.3579 -10.7178 9.07949
head 15.5007 -5.47647 4.01541
rclavicle 9.54166e-015 -1.59028e-014
rhumerus -39.9883 27.9125 -98.778
rradius 93.9614
rwrist -4.71069
rhand -22.2068 14.2141
rfingers 7.12502
rthumb 4.20905 -15.7241
lclavicle 9.54166e-015 -1.59028e-014
lhumerus -40.4912 -31.7485 105.73
lradius 90.9501
lwrist 10.1667
lhand -17.6535 34.1075
lfingers 7.12502
lthumb 8.60468 63.9122
rfemur 4.55789 -5.53847 29.4806
rtibia 18.8649
rfoot -16.4984 -4.67631
rtoes 19.8583
lfemur -21.3847 -7.14024 -14.1539
ltibia 34.376
lfoot -6.53568 0.114974
ltoes -20.7589
658
root 2.71989 17.867 13.1256 13.823 -78.419 -16.0698
lowerback 13.5901 -1.3093 4.59377
upperback 2.114 -1.07229 1.5193
thorax -5.43915 -0.642255 -0.796003
lowerneck -11.3589 -5.99941 -11.898
upperneck 35.4167 -10.5951 8.88536
head 15.4931 -5.44783 3.95187
rclavicle 3.03644e-014 -3.18055e-015
rhumerus -40.1499 28.0744 -98.8769
rradius 93.9367
rwrist -4.56264
rhand -22.2489 14.2548
rfingers 7.12502
rthumb 4.16838 -15.6842
lclavicle 3.03644e-014 -3.18055e-015
lhumerus -40.5622 -31.4531 105.758
lradius 90.9322
lwrist 10.1841
lhand -17.7591 34.2207
lfingers 7.12502
lthumb 8.50282 64.0295
rfemur 5.229 -5.51588 29.5255
rtibia 18.4656
rfoot -16.5188 -4.38121
rtoes 19.8168
lfemur -21.2879 -7.07679 -14.0615
ltibia 32.0083
lfoot -6.41932 -0.214987
ltoes -19.4742
